<svg xmlns="http://www.w3.org/2000/svg" viewBox="0 0 512 512">
  <defs>
    <linearGradient id="bg" x1="0%" y1="0%" x2="100%" y2="100%">
      <stop offset="0%" style="stop-color:#0ea5e9"/>
      <stop offset="100%" style="stop-color:#0284c7"/>
    </linearGradient>
  </defs>
  <!-- Background with rounded corners -->
  <rect width="512" height="512" rx="96" fill="url(#bg)"/>
  <!-- X letter -->
  <path d="M128 128 L208 256 L128 384 L176 384 L232 296 L288 384 L336 384 L256 256 L336 128 L288 128 L232 216 L176 128 Z" fill="white"/>
  <!-- T letter stylized as a measuring tool -->
  <rect x="340" y="128" width="24" height="256" rx="4" fill="white"/>
  <rect x="316" y="128" width="80" height="24" rx="4" fill="white"/>
  <!-- Small measurement marks -->
  <rect x="364" y="180" width="16" height="4" rx="1" fill="rgba(255,255,255,0.7)"/>
  <rect x="364" y="220" width="16" height="4" rx="1" fill="rgba(255,255,255,0.7)"/>
  <rect x="364" y="260" width="16" height="4" rx="1" fill="rgba(255,255,255,0.7)"/>
  <rect x="364" y="300" width="16" height="4" rx="1" fill="rgba(255,255,255,0.7)"/>
  <rect x="364" y="340" width="16" height="4" rx="1" fill="rgba(255,255,255,0.7)"/>
</svg>
